<?xml version="1.0" encoding="UTF-8" standalone="no"?>
<svg
   xmlns:dc="http://purl.org/dc/elements/1.1/"
   xmlns:cc="http://creativecommons.org/ns#"
   xmlns:rdf="http://www.w3.org/1999/02/22-rdf-syntax-ns#"
   xmlns:svg="http://www.w3.org/2000/svg"
   xmlns="http://www.w3.org/2000/svg"
   xmlns:sodipodi="http://sodipodi.sourceforge.net/DTD/sodipodi-0.dtd"
   xmlns:inkscape="http://www.inkscape.org/namespaces/inkscape"
   version="1.1"
   width="24"
   height="24"
   viewBox="0 0 24 24"
   id="svg4"
   sodipodi:docname="recognize-black.svg"
   inkscape:version="0.92.5 (2060ec1f9f, 2020-04-08)">
  <metadata
     id="metadata10">
    <rdf:RDF>
      <cc:Work
         rdf:about="">
        <dc:format>image/svg+xml</dc:format>
        <dc:type
           rdf:resource="http://purl.org/dc/dcmitype/StillImage" />
      </cc:Work>
    </rdf:RDF>
  </metadata>
  <defs
     id="defs8" />
  <sodipodi:namedview
     pagecolor="#ffffff"
     bordercolor="#666666"
     borderopacity="1"
     objecttolerance="10"
     gridtolerance="10"
     guidetolerance="10"
     inkscape:pageopacity="0"
     inkscape:pageshadow="2"
     inkscape:window-width="1920"
     inkscape:window-height="1016"
     id="namedview6"
     showgrid="false"
     inkscape:zoom="9.8333333"
     inkscape:cx="-8.0338983"
     inkscape:cy="16.067797"
     inkscape:window-x="0"
     inkscape:window-y="27"
     inkscape:window-maximized="1"
     inkscape:current-layer="svg4" />
  <g
     id="g925"
     transform="matrix(0.93113431,0,0,0.93113431,67.55638,25.712403)">
    <g
       id="g898"
       style="fill:none;fill-rule:evenodd;stroke:none;stroke-width:1"
       transform="translate(-71.79661,-26.644068)">
      <g
         id="g896"
         transform="translate(-168,-264)"
         style="fill:#000000">
        <g
           id="g894"
           transform="translate(167.67018,260.22125)">
          <g
             id="g886"
             transform="translate(7.829823,10.778748)">
            <path
               id="path878"
               d="M 6.4979586,0.50468445 C 6.4979586,0.22595492 6.7298922,0 6.9979586,0 c 0.2761424,0 0.5,0.21403503 0.5,0.50468445 V 1.4953155 C 7.4979586,1.7740451 7.266025,2 6.9979586,2 c -0.2761424,0 -0.5,-0.214035 -0.5,-0.5046845 z M 10.411301,1.4512867 c 0.163833,-0.2254969 0.484284,-0.2719711 0.701154,-0.1144057 0.223404,0.1623124 0.278702,0.4670506 0.107863,0.702191 L 10.638039,2.8405094 C 10.474206,3.0660063 10.153755,3.1124805 9.9368848,2.954915 9.713481,2.7926026 9.658183,2.4878644 9.8290224,2.2527241 Z m 2.609561,3.0660221 c 0.265088,-0.086132 0.551655,0.064626 0.634492,0.3195722 0.08533,0.262627 -0.04905,0.5416688 -0.325475,0.6314844 l -0.942146,0.3061218 c -0.265087,0.086132 -0.551655,-0.064626 -0.634492,-0.3195722 -0.08533,-0.262627 0.04905,-0.5416687 0.325475,-0.6314843 z m 0.309017,4.0143258 c 0.265088,0.086132 0.408312,0.3765381 0.325475,0.6314844 -0.08533,0.262627 -0.358068,0.4093878 -0.634492,0.3195722 L 12.078716,9.1765693 C 11.813629,9.0904371 11.670404,8.8000313 11.753241,8.545085 11.838574,8.282458 12.111309,8.1356972 12.387733,8.2255128 Z m -2.109561,3.4292934 c 0.163833,0.225497 0.109008,0.544626 -0.107863,0.702191 -0.223403,0.162312 -0.530315,0.120735 -0.701154,-0.114406 L 9.8290224,11.747276 C 9.6651893,11.521779 9.7200146,11.202651 9.9368848,11.045085 10.160289,10.882773 10.4672,10.92435 10.638039,11.159491 Z M 3.5846164,12.548713 C 3.4207833,12.77421 3.1003321,12.820684 2.8834618,12.663119 2.6600579,12.500807 2.60476,12.196068 2.7755994,11.960928 l 0.5822784,-0.801437 c 0.163833,-0.225497 0.4842842,-0.271971 0.7011545,-0.114406 0.2234039,0.162312 0.2787019,0.467051 0.1078624,0.702191 z M 0.9750549,9.4826912 C 0.70996737,9.5688233 0.42340004,9.4180653 0.34056297,9.163119 0.25523028,8.900492 0.38961389,8.6214502 0.66603791,8.5316346 L 1.6081841,8.2255128 C 1.8732716,8.1393806 2.1598389,8.2901387 2.242676,8.545085 2.3280087,8.807712 2.1936251,9.0867537 1.9172011,9.1765693 Z M 0.66603791,5.4683654 C 0.40095038,5.3822332 0.25772589,5.0918273 0.34056297,4.836881 0.42589566,4.574254 0.69863088,4.4274932 0.9750549,4.5173088 L 1.9172011,4.8234307 C 2.1822886,4.9095629 2.3255131,5.1999687 2.242676,5.454915 2.1573433,5.717542 1.8846081,5.8643028 1.6081841,5.7744872 Z M 2.7755994,2.039072 C 2.6117663,1.813575 2.6665915,1.4944465 2.8834618,1.336881 3.1068657,1.1745686 3.413777,1.2161464 3.5846164,1.4512867 L 4.1668947,2.2527241 C 4.3307278,2.478221 4.2759026,2.7973495 4.0590323,2.954915 3.8356285,3.1172274 3.5287172,3.0756497 3.3578778,2.8405094 Z"
               inkscape:connector-curvature="0" />
            <path
               id="path880"
               d="M 8,11 V 10.464871 C 8,10.107905 8.1902821,9.7780075 8.499274,9.5992654 9.4211263,9.0660026 10,8.0839642 10,7 10,5.3431457 8.6568543,4 7,4 5.3431457,4 4,5.3431457 4,7 4,8.0839642 4.5788737,9.0660026 5.500726,9.5992654 5.8097179,9.7780075 6,10.107905 6,10.464871 V 11 Z M 3,7 C 3,4.790861 4.790861,3 7,3 c 2.209139,0 4,1.790861 4,4 0,1.4805647 -0.804397,2.7732524 -2,3.464871 v 1.03974 C 9,11.778207 8.7849426,12 8.5095215,12 H 5.4904785 C 5.2195947,12 5,11.784247 5,11.504611 v -1.03974 C 3.8043973,9.7732524 3,8.4805647 3,7 Z"
               inkscape:connector-curvature="0"
               style="fill-rule:nonzero" />
            <rect
               id="rect882"
               rx="0.5"
               height="1"
               width="3.5999999"
               y="12.5"
               x="5.1999969" />
            <rect
               id="rect884"
               rx="0.5"
               height="1"
               width="3"
               y="14"
               x="5.5" />
          </g>
          <g
             id="g892"
             transform="rotate(-45,20.847584,8.0770289)">
            <path
               id="path888"
               d="m 17,15 h 0.5 c 0.113536,0 0.223691,-0.03864 0.312348,-0.109566 l 5,-4 C 22.930955,10.795548 23,10.651892 23,10.5 v -6 C 23,4.3481081 22.930955,4.2044517 22.812348,4.1095656 l -5,-4.00000001 C 17.723691,0.03864038 17.613536,0 17.5,0 H 0.5 C 0.22385763,0 0,0.22385763 0,0.5 v 14 C 0,14.776142 0.22385763,15 0.5,15 H 2 V 14 H 1 V 1 H 17.324609 L 22,4.7403124 V 10.259688 L 17.324609,14 H 17 Z"
               inkscape:connector-curvature="0"
               style="fill-rule:nonzero" />
            <circle
               id="circle890"
               r="1.5"
               cy="7.5"
               cx="19.5" />
          </g>
        </g>
      </g>
    </g>
  </g>
</svg>
